<svg xmlns="http://www.w3.org/2000/svg" height="100px" viewBox="0 0 1900 440">
<g>
	<path d="M756.693,353.321v-119.6h-.9c-4.222,3.9-19.967,4.234-26.642,4.234H717.609v.979c13.362,8.185,11.5,20.285,11.5,35.381l.047,50.607c0,25.321-24.873,43.082-44.922,43.082-26.347,0-37.339-18.763-37.339-49v-85.28h-.884c-4.269,3.9-20.085,4.234-26.736,4.234H607.81v.978c13.363,8.185,11.511,20.286,11.511,35.381v50.442c0,46.161,20.026,68.1,55.855,68.1,21.2,0,43.023-7.513,53.979-25.522v21.83H768.2v-1c-13.291-7.524-11.51-19.707-11.51-34.839"/>
	<path d="M817.309,289.383c3.656-20.545,18.823-33.612,39.155-33.612,21.9,0,35.865,10.779,39.2,33.612Zm110.212,19.059c1.215-42.222-27.043-74.065-68.309-74.065-45.24,0-75.88,32.846-75.88,78.357,0,45.854,35.5,80.763,87.1,80.763,14.294,0,28.835-2.264,41.938-8.066l15.155-30.794h-.9c-14,11.865-31.584,17.49-49.781,17.49-34.3,0-60.124-23.445-60.761-63.685Z"/>
	<path d="M951.587,164.235c7.3,0,22.137-.448,26.6-4.859h.9V366.52a94.543,94.543,0,0,0,25.05,3.892c33.187,0,52.187-23.174,52.187-55.524,0-31.725-14.766-56.185-45.264-56.185-9.636,0-17.172,2.618-25.3,7.182l16.264-27.892a59.317,59.317,0,0,1,21.417-3.621c34.391,0,63.662,29.838,63.662,74.631,0,51.314-34.708,84.442-89.608,84.442-20.509,0-40.205-3.62-55.053-5.9v-.991c10.025-4.623,9.093-15.473,9.093-26.241V209.724c0-15.108,1.84-36.266-11.2-44.51v-.979Z"/>
	<path d="M1140.988,289.383c3.632-20.545,18.822-33.612,39.166-33.612,21.854,0,35.794,10.779,39.132,33.612h-78.3Zm110.164,19.059c1.227-42.222-26.984-74.065-68.3-74.065-45.2,0-75.869,32.846-75.869,78.357,0,45.854,35.488,80.763,87.12,80.763,14.271,0,28.836-2.264,41.891-8.066l15.155-30.794h-.907c-13.94,11.865-31.572,17.49-49.77,17.49-34.319,0-60.124-23.445-60.713-63.685h111.39Z"/>
	<path d="M1386.939,271.9h-.9c-8.8-10.862-23.375-16.134-37.043-16.134-29.473,0-50.666,22.373-50.666,53.567,0,37.787,29.425,62.79,63.108,62.79,15.508,0,32.48-6.569,44.356-16.134h.884l-15.792,31.053c-12.749,5.177-26.724,6.463-40.1,6.463-46.739,0-83.264-32.893-83.264-75.6,0-56.515,40.795-83.534,86.613-83.534a139.769,139.769,0,0,1,32.8,3.891V271.9Z"/>
	<path d="M889.654,207.256V174.411c-19.92,8.9-38.377,25.569-50.7,41.809v12.808c29.543-19.92,50.7-20.864,50.7-21.772"/>
	<path d="M482.864,370.915c-45.842,0-77.732-51.692-77.732-95.659v-4.918c.577-42.575,28.14-82.5,76.211-82.5,50.63,0,76.694,47.87,77.13,93.193v4.741c0,48.331-30.05,85.139-75.609,85.139m157.127,50.276c-33.86,5.555-66.375-5.118-100.966-44.674,33.412-16.759,54.086-58.52,54.086-97.31v-4.835C592.462,208,542.623,164.184,483.194,164.184c-59.57,0-112.205,45.629-112.665,112.523V281.2c0,65.09,48.307,113.373,107.476,113.373a105.458,105.458,0,0,0,24.908-3.279c38.766,36.337,73.345,51.786,103.183,48.2,14.188-1.675,29.142-7.347,38.141-19.023l-4.246.719Z"/>
	<path d="M26.839,0h76.442L99.013,17.881h-47.8L44.29,46.574H86.4L82.037,64.525H39.928L33,93.287H80.8l-4.363,18.02H0Z"/>
	<path d="M114.764,28.693h25.8l-2.086,12.96h.948c6.828-9.772,15.933-14.554,27.6-14.554,12.993,0,21.814,3.812,22,14.554h.949c9.01-10.118,18.114-14.623,31.676-14.554,18.589.069,27.978,9.287,23.9,26.2l-13.941,58.01H203.913L217.286,56c1.8-7.693-1.518-11.366-9.579-11.366-10.527,0-16.692,7.9-19.253,18.574l-11.57,48.1H149.19l12.993-53.782c2.277-10.4-.758-12.891-8.819-12.891-10.528,0-16.6,7.97-19.158,18.574l-11.571,48.1H94.847Z"/>
	<path d="M273.916,28.693H298.29l-2.371,12.96h1.328c6.828-9.495,18.209-14.554,31.107-14.554,24.943,0,36.608,15.109,29.59,44.287-6.734,27.862-23.9,41.723-44.67,41.723-16.027,0-24.848-5.822-27.883-13.931h-1.328L274.3,140H247.076ZM330.63,68.337c4.173-17.327-.569-24.4-12.234-24.4-13.088,0-23.616,10.049-27.788,27.237-3.889,16.079.474,25.02,11.854,25.02C315.74,96.2,325.983,87.465,330.63,68.337Z"/>
	<path d="M393.138,0h27.693l-26.84,111.307H366.3Z"/>
	<path d="M421.783,68.822C428.8,39.644,449.287,27.1,476.411,27.1c29.021,0,44.48,13.931,36.987,44.564-6.923,28.693-27.124,41.446-54.343,41.446C430.129,113.109,414.48,98.97,421.783,68.822Zm65.914-.07c5.026-21.069-.569-26.267-11.95-26.267-12.33,0-22.477,6.584-27.883,29.109-5.027,20.515.664,25.921,11.381,25.921C472.238,97.515,482.386,90.723,487.7,68.752Z"/>
	<path d="M541.194,28.693h27.883L549.16,111.307H521.277ZM548.4,0H576l-4.173,17.4h-27.6Z"/>
</g>
<g fill="#1A64B7">
	<path d="M1478.423,222.646h183.958V109.9H1478.423V222.646Zm136.843-47.882c-2.23,7-6.133,9.352-7.242,9.352,0,0,1.805-7.689-3.75-11.64-5.237-3.692-11.711-1.451-14.707,2.948a23.9,23.9,0,0,0-3.267,9.954h9.589v7.088h-19.271s.483,10,11.039,9.022c0,0-1.274,7.9-11.039,3.762,0,0,.483,8.3-6.216,12.419-6.7-4.116-6.179-12.419-6.179-12.419-9.766,4.14-11.087-3.762-11.087-3.762,10.568.979,11.087-9.022,11.087-9.022h-19.271v-7.088h9.576a23.634,23.634,0,0,0-3.278-9.954c-3.008-4.4-9.471-6.64-14.684-2.948-5.566,3.951-3.75,11.64-3.75,11.64-1.073,0-5.012-2.347-7.241-9.352-4.175-13.315,8.975-26.135,22.313-18.729,9.388,5.19,13.268,16.924,13.268,29.343h5.119c-.165.943,1.179-9.282-.826-16.912a100.966,100.966,0,0,0-6.5-17.431c-2.807-5.791-3.821-15.544,2.076-22.88,5.035-6.345,8.019-9.871,9.375-12.383,1.357,2.512,4.364,6.038,9.447,12.383,5.862,7.336,4.824,17.089,2.017,22.88a100.384,100.384,0,0,0-6.451,17.431c-2.029,7.63-.684,17.855-.838,16.912h5.083c0-12.419,3.9-24.153,13.256-29.343,13.339-7.406,26.5,5.414,22.349,18.729"/>
	<path d="M1715.96,222.646H1900V109.9H1715.96Zm136.83-47.882c-2.217,7-6.133,9.352-7.23,9.352,0,0,1.781-7.689-3.726-11.64-5.272-3.692-11.723-1.451-14.754,2.948a24.279,24.279,0,0,0-3.244,9.954h9.612v7.088h-19.306s.484,10,11.1,9.022c0,0-1.3,7.9-11.1,3.762,0,0,.484,8.3-6.192,12.419-6.71-4.116-6.2-12.419-6.2-12.419-9.765,4.14-11.063-3.762-11.063-3.762,10.556.979,11.063-9.022,11.063-9.022h-19.224v-7.088h9.577a23.475,23.475,0,0,0-3.326-9.954c-3-4.4-9.471-6.64-14.648-2.948-5.6,3.951-3.75,11.64-3.75,11.64-1.109,0-5.048-2.347-7.23-9.352-4.222-13.315,8.94-26.135,22.29-18.729,9.4,5.19,13.245,16.924,13.245,29.343h5.13c-.129.943,1.167-9.282-.838-16.912a100.142,100.142,0,0,0-6.5-17.431c-2.807-5.791-3.821-15.544,2.075-22.88,5.048-6.345,8.044-9.871,9.4-12.383,1.309,2.512,4.411,6.038,9.423,12.383,5.826,7.336,4.824,17.089,2.028,22.88a103.578,103.578,0,0,0-6.462,17.431c-2.029,7.63-.672,17.855-.8,16.912h5.083c0-12.419,3.868-24.153,13.2-29.343,13.35-7.406,26.512,5.414,22.372,18.729"/>
	<path d="M1478.423,389.043h183.958V276.354H1478.423V389.043Zm136.843-47.859c-2.23,6.994-6.133,9.329-7.242,9.329,0,0,1.805-7.654-3.75-11.581-5.237-3.668-11.711-1.439-14.707,2.9a23.976,23.976,0,0,0-3.267,9.966h9.589v7.088h-19.271s.483,10,11.039,9.057c0,0-1.274,7.867-11.039,3.727,0,0,.483,8.267-6.216,12.419-6.7-4.152-6.179-12.419-6.179-12.419-9.766,4.14-11.087-3.727-11.087-3.727,10.568.944,11.087-9.057,11.087-9.057h-19.271V351.8h9.576a23.711,23.711,0,0,0-3.278-9.966c-3.008-4.34-9.471-6.569-14.684-2.9-5.566,3.927-3.75,11.581-3.75,11.581-1.073,0-5.012-2.335-7.241-9.329-4.175-13.3,8.975-26.135,22.313-18.728,9.388,5.2,13.268,16.924,13.268,29.343h5.119c-.165.943,1.179-9.282-.826-16.865a100.2,100.2,0,0,0-6.5-17.467c-2.807-5.791-3.821-15.556,2.076-22.844,5.035-6.357,8.019-9.919,9.375-12.372,1.357,2.453,4.364,6.015,9.447,12.372,5.862,7.288,4.824,17.053,2.017,22.844a99.636,99.636,0,0,0-6.451,17.467c-2.029,7.583-.684,17.808-.838,16.865h5.083c0-12.419,3.9-24.142,13.256-29.343,13.339-7.407,26.5,5.425,22.349,18.728"/>
	<path d="M1715.96,389.043H1900V276.354H1715.96Zm136.83-47.859c-2.217,6.994-6.133,9.329-7.23,9.329,0,0,1.781-7.654-3.726-11.581-5.272-3.668-11.723-1.439-14.754,2.9a24.359,24.359,0,0,0-3.244,9.966h9.612v7.088h-19.306s.484,10,11.1,9.057c0,0-1.3,7.867-11.1,3.727,0,0,.484,8.267-6.192,12.419-6.71-4.152-6.2-12.419-6.2-12.419-9.765,4.14-11.063-3.727-11.063-3.727,10.556.944,11.063-9.057,11.063-9.057h-19.224V351.8h9.577a23.551,23.551,0,0,0-3.326-9.966c-3-4.34-9.471-6.569-14.648-2.9-5.6,3.927-3.75,11.581-3.75,11.581-1.109,0-5.048-2.335-7.23-9.329-4.222-13.3,8.94-26.135,22.29-18.728,9.4,5.2,13.245,16.924,13.245,29.343h5.13c-.129.943,1.167-9.282-.838-16.865a99.392,99.392,0,0,0-6.5-17.467c-2.807-5.791-3.821-15.556,2.075-22.844,5.048-6.357,8.044-9.919,9.4-12.372,1.309,2.453,4.411,6.015,9.423,12.372,5.826,7.288,4.824,17.053,2.028,22.844a102.768,102.768,0,0,0-6.462,17.467c-2.029,7.583-.672,17.808-.8,16.865h5.083c0-12.419,3.868-24.142,13.2-29.343,13.35-7.407,26.512,5.425,22.372,18.728"/>
</g>
</svg>
