<svg xmlns="http://www.w3.org/2000/svg" height="100px" viewBox="0 0 404 300">
<g transform="translate(-0.375 -0.5)">
	<path d="M66.521,93.254V217.68c0,3.371-.374,5.057.75,6.742a3.019,3.019,0,0,0,2.623,1.686,3.474,3.474,0,0,0,3.184-1.869c1.125-1.688.938-3.377.938-6.934V93.254h5.809v126.86c0,8.617-3.186,12.927-9.931,12.927a9.212,9.212,0,0,1-7.121-2.994c-1.874-2.064-2.811-5.25-2.811-9.744V93.254Z"/>
	<path d="M128.545,232.293l-9.369-85.447v85.447h-5.06V93.254h6.746l9.555,80.2v-80.2h4.312V232.293Z"/>
	<path d="M185.323,155.84v4.873h-9.182v65.774h10.494v5.806H167.9V93.254h17.428v6h-9.182V155.84Z"/>
	<path d="M367.274,73.579V85.2H39.912V73.579H367.274Z"/>
	<path d="M367.274,242.6v11.615H39.912V242.6H367.274Z"/>
	<path d="M385.262,266.022v11.621H18.926V266.022H385.262Z"/>
	<path d="M403.625,288.7v11.8H.375V288.7h403.25Z"/>
	<path d="M202,.5,366.52,47.347V59.714L200.5,14.554,39.163,60.462h0V48.1Z"/>
	<path d="M329.235,60.462h-33.92l-92-24.921L111.5,59.714l-35.044.748h0L203.684,23.923Z"/>
	<path d="M231.981,133.355H239.1V106.371s-.19-7.87-2.065-10.117a10.765,10.765,0,0,0-8.992-3.937c-4.683.189-5.81,1.5-7.5,3.561-1.875,2.062-2.623,5.62-2.623,9.371s.189,20.424.748,26.044c.563,5.436,5.811,27.545,8.809,38.229,2.812,10.867,4.123,16.3,4.312,19.3.186,3.182.559,13.866.186,19.112-.186,5.246,0,12.553,0,12.553s.373,5.81-3,5.81c-3.561,0-3.188-5.81-3.188-5.81V187.51h-7.121V220.3s-1.871,11.99,9.371,11.99c11.432,0,11.432-10.679,11.432-10.679V191.631s-.565-9.932-2.44-16.863c-1.871-6.748-7.869-28.3-9.181-34.294-1.5-6.368-2.061-15.74-2.061-24.171s.19-13.678.19-13.678-.19-3.935,3-3.935c3,0,2.812,4.122,2.812,4.122l.186,30.543Z"/>
	<path d="M286.508,133.729h6.184V101.311c0-5.057-2.809-10.117-9.746-10.117-6.368,0-10.114,4.684-10.114,10.3V223.3c0,5.43,3.746,10.119,10.114,10.119,6.937,0,9.746-4.873,9.746-9.935V186.948h-6.184V223.3c0,1.875.19,4.119-3.562,4.119-3.934,0-3.555-3.371-3.555-4.683V101.875c0-1.312-.379-4.686,3.555-4.686,3.752,0,3.562,2.437,3.562,4.309v32.231Z"/>
	<path d="M338.227,91.194c-6.369,0-10.867,4.684-10.867,10.3V223.3c0,5.43,4.5,10.119,10.867,10.119,6.931,0,10.494-4.873,10.494-9.935V101.311c0-5.057-3.563-10.117-10.494-10.117ZM342.535,223.3c0,1.875-.558,4.119-4.308,4.119-3.936,0-4.309-3.371-4.309-4.683V101.875c0-1.312.373-4.686,4.309-4.686,3.75,0,4.308,2.437,4.308,4.309V223.3Z"/>
</g>
</svg>
