<svg xmlns="http://www.w3.org/2000/svg" height="100px" viewBox="0 0 197 45">
<g fill="#FFEFEF">
	<path d="M4,8.001h4.64v31.337H4V8.001z
		M18.883,15.936h-0.202v23.402h-4.176V8.001h4.506l8.202,22.722h0.21V8.001 h4.205v31.337h-4.199L18.883,15.936z
		M37.491,8.001h13.297v2.766h-8.646v10.774h6.27v2.766h-6.27v15.031h-4.651V8.001z
		M51.952,23.641c0-9.678,1.988-16.137,9.066-16.137c7.082,0,9.11,6.458,9.11,16.137c0,9.705-2.029,16.17-9.11,16.17 C53.94,39.811,51.952,33.346,51.952,23.641z
		M61.021,37.271c4.158,0,4.209-6.061,4.209-13.631c0-7.541-0.051-13.614-4.209-13.614c-4.145,0-4.163,6.073-4.163,13.614C56.858,31.211,56.875,37.271,61.021,37.271z
		M74.541,8.001h6.307c5.515,0,9.684,1.266,9.684,8.631c0,8.493-5.945,8.842-9.684,8.889H79.19v13.816h-4.649V8.001z
		M79.19,22.756h1.543c2.718,0,5.137-0.528,5.137-6.127c0-4.963-1.962-5.862-5.137-5.862H79.19V22.756z
		M93.96,8.001h6.514c4.219,0,9.703,0.709,9.703,8.222c0,5.041-3.221,6.816-5.342,7.304v-0.029c3.762,0.773,4.262,4.029,4.871,7.717l1.359,8.123h-4.711l-1.275-8.355c-0.494-2.67-1.172-5.6-4.73-5.6h-1.743v13.955H93.96V8.001z
		M98.607,22.618h1.743c2.32,0,5.254-1.027,5.254-6.172c0-4.412-1.797-5.679-5.254-5.679h-1.743V22.618z
		M114.799,8.001h13.672v2.766h-9.041v10.992h7.223v2.774h-7.223v11.789h9.377v3.016h-14.008V8.001z
		M165.49,8.001h13.682v2.766h-9.025v10.992h7.211v2.774h-7.211v11.789h9.365v3.016H165.49V8.001z
		M137.938,36.693c-1.385,0-2.75-0.369-3.904-0.781c-1.166-0.418-2.113-0.904-2.639-1.199v1.811v2.121c0.354,0.184,1.174,0.484,2.258,0.742c1.066,0.256,2.367,0.465,3.709,0.465c2.355,0,4.498-0.662,6.045-2.137c1.547-1.471,2.494-3.787,2.494-7.1c0-5.264-2.705-7.465-5.404-9.48c-2.705-2.023-5.422-3.501-5.422-6.813c0-1.186,0.393-2.19,1.043-2.877c0.668-0.702,1.584-1.107,2.615-1.107c1.281,0,2.496,0.275,3.492,0.603c0.998,0.328,1.797,0.689,2.223,0.918v-1.597v-1.94c-0.459-0.11-1.279-0.311-2.244-0.49c-0.961-0.18-2.086-0.332-3.182-0.332c-2.434,0-4.352,0.749-5.67,2.129c-1.318,1.377-2.021,3.399-2.021,5.936c0,5.229,2.713,7.368,5.414,9.387c2.697,2.004,5.412,3.582,5.412,7.156c0,1.609-0.447,2.75-1.186,3.479C140.213,36.34,139.154,36.693,137.938,36.693zM154.395,36.693c-1.385,0-2.75-0.369-3.904-0.781c-1.168-0.418-2.115-0.904-2.639-1.199v1.811v2.121c0.355,0.184,1.176,0.484,2.258,0.742c1.063,0.256,2.365,0.465,3.709,0.465c2.355,0,4.496-0.662,6.045-2.137c1.545-1.471,2.496-3.787,2.496-7.1c0-5.264-2.705-7.465-5.406-9.48c-2.707-2.023-5.422-3.501-5.422-6.813c0-1.186,0.393-2.19,1.045-2.877c0.664-0.702,1.582-1.107,2.613-1.107c1.281,0,2.498,0.275,3.492,0.603c0.998,0.328,1.797,0.689,2.221,0.918v-1.597v-1.94c-0.459-0.11-1.279-0.311-2.244-0.49c-0.959-0.18-2.086-0.332-3.182-0.332c-2.43,0-4.348,0.749-5.668,2.129c-1.318,1.377-2.021,3.399-2.021,5.936c0,5.229,2.713,7.368,5.414,9.387c2.699,2.004,5.41,3.582,5.41,7.156c0,1.609-0.445,2.75-1.184,3.479C156.672,36.34,155.611,36.693,154.395,36.693z"/>
	<path d="M188.381,11.681c0.131,0,1.018,0,1.018,0c1.244,0,1.9-0.643,1.9-1.86c0-1.155-0.711-1.822-1.951-1.822h-2.326v5.448h1.359C188.381,13.447,188.381,11.828,188.381,11.681z
		M188.381,9.089c0.127,0,0.816,0,0.816,0c0.559,0,0.742,0.186,0.742,0.762c0,0.551-0.213,0.767-0.742,0.767c0,0-0.689,0-0.816,0C188.381,10.482,188.381,9.224,188.381,9.089z"/>
	<rect x="184.83" y="8" width="1.348" height="5.448"/>
	<path d="M187.637,4.425c-3.445,0-6.234,2.754-6.234,6.144c0,1.868,0.836,3.663,2.25,4.8h2.094l-0.002-0.037c-1.938-0.733-3.23-2.665-3.23-4.763c0-2.782,2.287-5.041,5.123-5.041c2.822,0,5.133,2.259,5.133,5.041c0,2.781-2.311,5.044-5.133,5.044l-0.533-0.026v1.105l0.533,0.025c3.438,0,6.238-2.758,6.238-6.148C193.875,7.18,191.074,4.425,187.637,4.425z"/>
</g>
</svg>
