<svg xmlns="http://www.w3.org/2000/svg" height="100px" viewBox="0 0 278 60">
<g fill="#FFEFEF">
	<path d="M80.993,13.337l-11.5,0V46.664H81.129c10.416,0,17.147-6.52,17.147-16.607C98.278,20.055,91.332,13.337,80.993,13.337ZM80.67,41.005H76.286V19.037h4.687c6.124,0,10.57,4.638,10.57,11.03C91.543,36.507,87.072,41.005,80.67,41.005Z"/>
	<path d="M0,15V45L25.962,60,51.923,45V15L25.963,0Zm44.9,4.06V40.94L25.963,51.878,7.032,40.94V19.062L25.963,8.124Z"/>
	<path d="M231.157,16.319a3.474,3.474,0,1,1-3.473-3.477A3.479,3.479,0,0,1,231.157,16.319Zm-.5,7.5h-5.952V46.664h5.952Z"/>
	<path d="M136.582,32.538c-2.548-.986-3.341-1.462-3.341-2.54,0-1.022.82-1.634,2.195-1.634,2.267,0,3.963,1.23,5.459,2.577l3.455-3.694a12.241,12.241,0,0,0-8.844-3.819c-4.819,0-8.189,2.8-8.189,6.811,0,4.566,3.523,6.346,6.972,7.486.415.135.8.259,1.15.367,1.961.619,3.041.962,3.041,2.148,0,.664-.362,1.777-2.782,1.777a7.124,7.124,0,0,1-5.675-2.785l-3.5,3.728a11.517,11.517,0,0,0,9.1,4.094c5.448,0,8.832-2.645,8.832-6.9C144.455,35.882,141.482,34.427,136.582,32.538Z"/>
	<path d="M270.129,32.538c-2.548-.986-3.341-1.462-3.341-2.54,0-1.022.82-1.634,2.195-1.634,2.266,0,3.964,1.23,5.46,2.577l3.452-3.694a12.234,12.234,0,0,0-8.844-3.819c-4.818,0-8.186,2.8-8.186,6.811,0,4.566,3.522,6.346,6.972,7.486.414.135.793.259,1.147.367,1.965.619,3.043.962,3.043,2.148,0,.664-.363,1.777-2.781,1.777a7.121,7.121,0,0,1-5.675-2.785l-3.5,3.728a11.515,11.515,0,0,0,9.1,4.094c5.449,0,8.831-2.645,8.831-6.9C278,35.882,275.027,34.427,270.129,32.538Z"/>
	<path d="M155.074,16.319a3.475,3.475,0,1,1-3.475-3.477A3.48,3.48,0,0,1,155.074,16.319Zm-7.068,39.214c3.921,0,6.576-2.7,6.576-8.071V23.823h-5.973V47.215c0,2.074-.848,3.1-2.273,3.1a4.005,4.005,0,0,1-1.984-.559l-1,4.973a11.373,11.373,0,0,0,4.658.8Z"/>
	<path d="M173.927,25.092a11.317,11.317,0,0,0-6.1-1.662c-3.755,0-6.836,1.353-8.687,3.811.4.44,2.973,3.166,3.472,3.688a5.686,5.686,0,0,1,3.148-2.4,5.356,5.356,0,0,1,1.592-.232,5.279,5.279,0,0,1,1.992.363,3.411,3.411,0,0,1,2.221,3.217V33.37a12.891,12.891,0,0,0-5.047-.877c-4.806,0-8.429,3.177-8.429,7.387a7.056,7.056,0,0,0,7.408,7.18,8.555,8.555,0,0,0,5.811-2.4h.257v2.006h5.652V31.733A7.441,7.441,0,0,0,173.927,25.092ZM171.57,39.209c0,1.161-2.426,3.007-5.3,3.007a2.7,2.7,0,0,1-2.943-2.631c0-.953.529-2.718,3.612-2.718a18.465,18.465,0,0,1,4.63.712v1.63Z"/>
	<path d="M188.3,26.5h-.148V23.822h-6.066v22.84h6.066l-.01-10.281c0-4.122,2.042-6.928,7.186-6.928V23.43C192.26,23.479,189.776,24.41,188.3,26.5Z"/>
	<path d="M213.887,44.659h.279v2h5.664V13.335h-5.963V25.7h-.229c-1.183-1.417-3.986-2.272-5.884-2.272-7.237,0-11.143,6.085-11.143,11.812a11.735,11.735,0,0,0,3.457,8.658,11.094,11.094,0,0,0,7.686,3.154A10.15,10.15,0,0,0,213.887,44.659ZM208.1,41.666c-3.274,0-5.836-2.822-5.836-6.424s2.551-6.446,5.807-6.446c3.615,0,5.858,3.348,5.858,6.446C213.925,38.783,211.311,41.666,208.1,41.666Z"/>
	<path d="M241.716,25.691h-.231v-1.87h-5.962v22.84h5.962V34.776c0-5.251,3.259-6.034,5.2-6.034,3.438,0,4.66,2.855,4.66,5.529V46.662h5.964V34.341c0-6.839-3.653-10.909-9.774-10.909C243.311,23.432,241.747,25.624,241.716,25.691Z"/>
	<path d="M124.062,34.993c-.039-6.83-4.634-11.561-11.2-11.561S101.54,28.389,101.54,35.223c0,6.968,4.833,11.834,11.756,11.834,4.052,0,7.57-1.493,9.666-4.094-.428-.471-3.079-3.264-3.551-3.74a7.659,7.659,0,0,1-5.644,2.558,5.9,5.9,0,0,1-6.04-4.637h16.2A14.017,14.017,0,0,0,124.062,34.993Zm-16.316-2.088a5.2,5.2,0,0,1,5.319-4.243c2.6,0,4.442,1.46,5.111,4.243Z"/>
</g>
</svg>
