<svg xmlns="http://www.w3.org/2000/svg" width="80" height="200" viewBox="0 0 80 200">
	<g>
		<!-- <animateTransform attributeName="transform"
											type="translate"
											dur="4"
											repeatCount="indefinite"
											values="0 8;0 12;0 8"
											calcMode="spline"
											keySplines="0.4 0 0.6 1; 0.4 0 0.6 1"/> -->
		<path d="M40,100 q10,20 0,40 -10,20 0,40" fill="none" stroke="#333" stroke-width="2" stroke-linecap="round">
			<animate attributeName="d"
								dur="10"
								repeatCount="indefinite"
								values="M40,100 q10,20 0,40 -10,20 0,40; M40,100 q-10,20 0,40 10,20 0,40; M40,100 q10,20 0,40 -10,20 0,40;"
								calcMode="spline"
								keySplines="0.4 0 0.6 1; 0.4 0 0.6 1"/>
		</path>
		<path fill="#EC1A24" d="M40,80 A40,40 0 1 1 80,40 V70 C80,85 95,75 85,85 75,95 85,80 70,80 V80Z" stroke="#fff8" stroke-width=".5" transform="rotate(45 40 40)"/>
		<path fill="#ff0" d="M15,65 V20 Q15,15 20,15 H65 Q70,15 70,20 Q73,23 73,62Z" stroke="#fff8" stroke-width=".5" transform="rotate(45 40 40)"/>
		<g fill="none" stroke-linecap="round">
			<path stroke="#333" stroke-width="2" d="M36,95 h8
																								m0,2 h-8"/>
			<!-- <path stroke="#FFEFEF" stroke-width="4" d="M10,40 A30,30 0 0 1 40,10"/> -->
		</g>
	</g>
</svg>